<svg width="250" height="176" viewBox="0 0 250 176" fill="none" xmlns="http://www.w3.org/2000/svg">
<path d="M42.8428 52.8818H195.516V59.3636H42.8428V52.8818Z" fill="#050B31"/>
<path d="M28.3271 60.3607V67.8397L125.187 14.2405L180.499 46.8986V123.683H206.779V60.1114L218.042 68.0889V58.6154L206.779 51.1368V4.51784H180.499V37.176L125.687 4.26855L28.3271 60.3607Z" fill="#050B31"/>
<path d="M42.8428 52.8818H195.516V59.3636H42.8428V52.8818Z" fill="#050B31"/>
<path d="M28.3271 60.3607V67.8397L125.187 14.2405L180.499 46.8986V123.683H206.779V60.1114L218.042 68.0889V58.6154L206.779 51.1368V4.51784H180.499V37.176L125.687 4.26855L28.3271 60.3607Z" fill="#050B31"/>
<path d="M130.943 16.9824H135.949V53.3801H130.943V16.9824Z" fill="#050B31"/>
<path d="M129.441 88.7812H134.447V118.199H129.441V88.7812Z" fill="#050B31"/>
<path d="M154.47 24.4619H159.475V118.198H154.47V24.4619Z" fill="#050B31"/>
<path d="M107.416 19.4756H112.422V118.198H107.416V19.4756Z" fill="#050B31"/>
<path d="M107.416 92.769V87.7832H159.475V92.769H107.416Z" fill="#050B31"/>
<path d="M87.3936 28.4502H92.3992V118.198H87.3936V28.4502Z" fill="#050B31"/>
<path d="M65.8691 40.915H70.8747V118.198H65.8691V40.915Z" fill="#050B31"/>
<path d="M45.8467 53.3809H50.8523V118.198H45.8467V53.3809Z" fill="#050B31"/>
<path d="M45.8467 116.702H206.529V123.683H45.8467V116.702Z" fill="#050B31"/>
<path d="M45.8467 128.669H206.529V146.12H45.8467V128.669Z" fill="#050B31"/>
<path d="M210.032 133.654H244.071V146.119H210.032V133.654Z" fill="#050B31"/>
<path d="M210.032 120.192H227.051V146.12H210.032V120.192Z" fill="#050B31"/>
<path d="M11.4421 21.4151H28.3558V29.0934H11.4421V21.4151ZM12.1707 35.7342H31.2181V43.6719H1.97043V7.35547H30.5416V15.2932H12.1707V35.7342ZM10.6357 93.9107V57.5943H20.94V93.9107H10.6357ZM12.9314 144.876C10.2599 144.876 7.83127 144.426 5.6455 143.527C3.49442 142.593 1.70764 141.262 0.285156 139.532L5.90571 132.891C6.87716 134.137 7.88331 135.088 8.92416 135.745C9.965 136.367 11.0579 136.679 12.2028 136.679C15.2559 136.679 16.7825 134.915 16.7825 131.387V115.771H4.18832V107.833H26.9828V130.764C26.9828 135.503 25.7858 139.048 23.3919 141.4C20.9979 143.717 17.5111 144.876 12.9314 144.876Z" fill="white"/>
<path d="M14.0763 175.784C12.3266 175.784 10.7034 175.511 9.20671 174.965C7.73108 174.397 6.44518 173.599 5.349 172.569C4.2739 171.539 3.43068 170.331 2.81934 168.944C2.20801 167.536 1.90234 165.991 1.90234 164.31C1.90234 162.629 2.20801 161.095 2.81934 159.708C3.43068 158.3 4.2739 157.081 5.349 156.051C6.44518 155.022 7.73108 154.234 9.20671 153.687C10.7034 153.12 12.3266 152.836 14.0763 152.836C16.1211 152.836 17.9445 153.193 19.5466 153.908C21.1698 154.622 22.519 155.652 23.5941 156.997L19.6099 160.591C18.8931 159.75 18.1026 159.109 17.2383 158.668C16.3951 158.226 15.4465 158.006 14.3925 158.006C13.486 158.006 12.6533 158.153 11.8945 158.447C11.1356 158.741 10.4821 159.172 9.93398 159.739C9.40697 160.286 8.98536 160.948 8.66916 161.725C8.37403 162.503 8.22647 163.365 8.22647 164.31C8.22647 165.256 8.37403 166.117 8.66916 166.895C8.98536 167.673 9.40697 168.345 9.93398 168.912C10.4821 169.459 11.1356 169.879 11.8945 170.173C12.6533 170.468 13.486 170.615 14.3925 170.615C15.4465 170.615 16.3951 170.394 17.2383 169.953C18.1026 169.511 18.8931 168.87 19.6099 168.03L23.5941 171.623C22.519 172.947 21.1698 173.977 19.5466 174.713C17.9445 175.427 16.1211 175.784 14.0763 175.784ZM36.9919 175.627C35.1157 175.627 33.4503 175.248 31.9957 174.492C30.5412 173.735 29.3923 172.695 28.5491 171.371C27.727 170.026 27.3159 168.492 27.3159 166.769C27.3159 165.046 27.727 163.522 28.5491 162.198C29.3923 160.874 30.5412 159.845 31.9957 159.109C33.4503 158.352 35.1157 157.974 36.9919 157.974C38.868 157.974 40.5334 158.352 41.9879 159.109C43.4635 159.845 44.6124 160.874 45.4345 162.198C46.2567 163.522 46.6677 165.046 46.6677 166.769C46.6677 168.492 46.2567 170.026 45.4345 171.371C44.6124 172.695 43.4635 173.735 41.9879 174.492C40.5334 175.248 38.868 175.627 36.9919 175.627ZM36.9919 170.867C37.6875 170.867 38.2988 170.709 38.8258 170.394C39.3739 170.079 39.8061 169.616 40.1223 169.007C40.4385 168.377 40.5966 167.631 40.5966 166.769C40.5966 165.907 40.4385 165.182 40.1223 164.594C39.8061 163.984 39.3739 163.522 38.8258 163.207C38.2988 162.892 37.6875 162.734 36.9919 162.734C36.3173 162.734 35.7059 162.892 35.1579 163.207C34.6308 163.522 34.1987 163.984 33.8614 164.594C33.5452 165.182 33.3871 165.907 33.3871 166.769C33.3871 167.631 33.5452 168.377 33.8614 169.007C34.1987 169.616 34.6308 170.079 35.1579 170.394C35.7059 170.709 36.3173 170.867 36.9919 170.867ZM63.4586 157.974C64.7867 157.974 65.9882 158.247 67.0633 158.794C68.1384 159.319 68.9816 160.139 69.593 161.253C70.2254 162.366 70.5416 163.806 70.5416 165.571V175.343H64.5337V166.548C64.5337 165.329 64.2807 164.447 63.7748 163.9C63.2899 163.333 62.6048 163.049 61.7195 163.049C61.087 163.049 60.5073 163.196 59.9803 163.491C59.4533 163.764 59.0423 164.195 58.7471 164.783C58.452 165.371 58.3044 166.138 58.3044 167.084V175.343H52.2965V158.258H58.0199V163.112L56.9131 161.694C57.5666 160.454 58.4625 159.529 59.6009 158.92C60.7392 158.289 62.0251 157.974 63.4586 157.974ZM83.3888 175.627C81.9342 175.627 80.5113 175.459 79.12 175.122C77.7498 174.786 76.643 174.366 75.7998 173.861L77.6022 169.764C78.4033 170.247 79.3413 170.636 80.4164 170.93C81.4915 171.203 82.5455 171.34 83.5785 171.34C84.5903 171.34 85.286 171.235 85.6654 171.024C86.066 170.814 86.2662 170.531 86.2662 170.173C86.2662 169.837 86.0765 169.595 85.6971 169.448C85.3387 169.28 84.8538 169.154 84.2425 169.07C83.6523 168.986 82.9988 168.891 82.282 168.786C81.5653 168.681 80.838 168.545 80.1002 168.377C79.3835 168.187 78.7195 167.914 78.1081 167.557C77.5179 167.179 77.0436 166.674 76.6852 166.044C76.3268 165.413 76.1477 164.615 76.1477 163.648C76.1477 162.555 76.4639 161.589 77.0963 160.748C77.7498 159.887 78.6984 159.214 79.9421 158.731C81.1859 158.226 82.7037 157.974 84.4955 157.974C85.6971 157.974 86.9092 158.1 88.1318 158.352C89.3756 158.584 90.4191 158.941 91.2623 159.424L89.4599 163.491C88.6167 163.007 87.7735 162.682 86.9303 162.513C86.087 162.324 85.286 162.23 84.5271 162.23C83.5152 162.23 82.7985 162.345 82.3769 162.576C81.9764 162.808 81.7761 163.091 81.7761 163.428C81.7761 163.764 81.9553 164.026 82.3137 164.216C82.672 164.384 83.1463 164.52 83.7366 164.625C84.3479 164.709 85.0119 164.804 85.7287 164.909C86.4454 164.993 87.1621 165.13 87.8789 165.319C88.6167 165.508 89.2807 165.792 89.871 166.17C90.4823 166.527 90.9672 167.021 91.3255 167.652C91.6839 168.261 91.8631 169.049 91.8631 170.016C91.8631 171.066 91.5363 172.012 90.8828 172.853C90.2504 173.693 89.3018 174.366 88.037 174.87C86.7932 175.375 85.2438 175.627 83.3888 175.627ZM104.95 175.627C102.758 175.627 101.05 175.091 99.8275 174.019C98.6048 172.926 97.9935 171.287 97.9935 169.102V154.444H104.001V169.039C104.001 169.648 104.17 170.131 104.507 170.489C104.845 170.825 105.277 170.993 105.804 170.993C106.521 170.993 107.132 170.814 107.638 170.457L109.124 174.65C108.618 174.986 107.996 175.227 107.258 175.375C106.521 175.543 105.751 175.627 104.95 175.627ZM95.4955 163.365V158.888H107.922V163.365H95.4955ZM114.287 175.343V158.258H120.01V163.238L119.156 161.82C119.662 160.538 120.484 159.582 121.623 158.951C122.761 158.3 124.142 157.974 125.765 157.974V163.365C125.491 163.322 125.248 163.301 125.038 163.301C124.848 163.28 124.637 163.27 124.405 163.27C123.183 163.27 122.192 163.606 121.433 164.279C120.674 164.93 120.295 166.002 120.295 167.494V175.343H114.287ZM138.361 175.627C136.97 175.627 135.716 175.354 134.598 174.807C133.502 174.261 132.638 173.41 132.005 172.254C131.394 171.077 131.088 169.595 131.088 167.809V158.258H137.096V166.832C137.096 168.156 137.339 169.102 137.824 169.669C138.329 170.236 139.036 170.52 139.942 170.52C140.532 170.52 141.07 170.384 141.555 170.11C142.04 169.837 142.43 169.406 142.725 168.818C143.02 168.208 143.167 167.431 143.167 166.485V158.258H149.175V175.343H143.452V170.52L144.559 171.876C143.968 173.136 143.115 174.082 141.997 174.713C140.88 175.322 139.668 175.627 138.361 175.627ZM164.65 175.627C162.753 175.627 161.056 175.248 159.559 174.492C158.083 173.735 156.924 172.695 156.081 171.371C155.238 170.026 154.816 168.492 154.816 166.769C154.816 165.046 155.238 163.522 156.081 162.198C156.924 160.874 158.083 159.845 159.559 159.109C161.056 158.352 162.753 157.974 164.65 157.974C166.589 157.974 168.265 158.384 169.678 159.204C171.09 160.023 172.091 161.179 172.682 162.671L168.033 165.035C167.633 164.237 167.137 163.659 166.547 163.301C165.957 162.923 165.314 162.734 164.618 162.734C163.923 162.734 163.29 162.892 162.721 163.207C162.152 163.522 161.699 163.984 161.361 164.594C161.045 165.182 160.887 165.907 160.887 166.769C160.887 167.652 161.045 168.398 161.361 169.007C161.699 169.616 162.152 170.079 162.721 170.394C163.29 170.709 163.923 170.867 164.618 170.867C165.314 170.867 165.957 170.688 166.547 170.331C167.137 169.953 167.633 169.364 168.033 168.566L172.682 170.93C172.091 172.422 171.09 173.578 169.678 174.397C168.265 175.217 166.589 175.627 164.65 175.627ZM185.719 175.627C183.527 175.627 181.82 175.091 180.597 174.019C179.374 172.926 178.763 171.287 178.763 169.102V154.444H184.771V169.039C184.771 169.648 184.939 170.131 185.277 170.489C185.614 170.825 186.046 170.993 186.573 170.993C187.29 170.993 187.901 170.814 188.407 170.457L189.893 174.65C189.387 174.986 188.766 175.227 188.028 175.375C187.29 175.543 186.521 175.627 185.719 175.627ZM176.265 163.365V158.888H188.692V163.365H176.265ZM195.056 175.343V158.258H201.064V175.343H195.056ZM198.06 156.367C196.964 156.367 196.078 156.062 195.404 155.452C194.729 154.843 194.392 154.086 194.392 153.183C194.392 152.279 194.729 151.523 195.404 150.913C196.078 150.304 196.964 149.999 198.06 149.999C199.156 149.999 200.042 150.293 200.716 150.882C201.391 151.449 201.728 152.185 201.728 153.088C201.728 154.034 201.391 154.822 200.716 155.452C200.063 156.062 199.177 156.367 198.06 156.367ZM216.415 175.627C214.539 175.627 212.874 175.248 211.419 174.492C209.965 173.735 208.816 172.695 207.972 171.371C207.15 170.026 206.739 168.492 206.739 166.769C206.739 165.046 207.15 163.522 207.972 162.198C208.816 160.874 209.965 159.845 211.419 159.109C212.874 158.352 214.539 157.974 216.415 157.974C218.291 157.974 219.957 158.352 221.411 159.109C222.887 159.845 224.036 160.874 224.858 162.198C225.68 163.522 226.091 165.046 226.091 166.769C226.091 168.492 225.68 170.026 224.858 171.371C224.036 172.695 222.887 173.735 221.411 174.492C219.957 175.248 218.291 175.627 216.415 175.627ZM216.415 170.867C217.111 170.867 217.722 170.709 218.249 170.394C218.797 170.079 219.229 169.616 219.546 169.007C219.862 168.377 220.02 167.631 220.02 166.769C220.02 165.907 219.862 165.182 219.546 164.594C219.229 163.984 218.797 163.522 218.249 163.207C217.722 162.892 217.111 162.734 216.415 162.734C215.741 162.734 215.129 162.892 214.581 163.207C214.054 163.522 213.622 163.984 213.285 164.594C212.968 165.182 212.81 165.907 212.81 166.769C212.81 167.631 212.968 168.377 213.285 169.007C213.622 169.616 214.054 170.079 214.581 170.394C215.129 170.709 215.741 170.867 216.415 170.867ZM242.882 157.974C244.21 157.974 245.411 158.247 246.487 158.794C247.562 159.319 248.405 160.139 249.016 161.253C249.649 162.366 249.965 163.806 249.965 165.571V175.343H243.957V166.548C243.957 165.329 243.704 164.447 243.198 163.9C242.713 163.333 242.028 163.049 241.143 163.049C240.51 163.049 239.931 163.196 239.404 163.491C238.877 163.764 238.466 164.195 238.17 164.783C237.875 165.371 237.728 166.138 237.728 167.084V175.343H231.72V158.258H237.443V163.112L236.336 161.694C236.99 160.454 237.886 159.529 239.024 158.92C240.162 158.289 241.448 157.974 242.882 157.974Z" fill="white"/>
</svg>
